<svg width="50" height="50" viewBox="0 0 50 50" fill="none" xmlns="http://www.w3.org/2000/svg">
<path d="M40.9332 9.94291H35.4145L37.3318 8.17896C37.6701 7.86792 38.1096 7.69656 38.5693 7.69656H43.1705C43.7099 7.69656 44.1471 7.25882 44.1471 6.71956C44.1471 6.17992 43.7099 5.74218 43.1705 5.74218H38.5693C37.6186 5.74218 36.7096 6.09672 36.01 6.74055L32.5287 9.94291H27.0996L23.4207 6.9661C23.0099 6.63369 22.4091 6.68827 22.0654 7.09014L21.2322 8.06218L12.9536 0.848771C12.9467 0.842664 12.9395 0.83694 12.9322 0.830834C12.2811 0.295009 11.4575 0 10.614 0H7.51346C6.45641 0 5.452 0.457588 4.75849 1.25598L3.8277 2.32687C3.47408 2.7337 3.5168 3.35081 3.92383 3.70498C4.33086 4.05952 4.9477 4.01601 5.3017 3.6088L6.23248 2.5383C6.55483 2.16696 7.02175 1.954 7.51346 1.954H10.614C11.0024 1.954 11.3812 2.08834 11.6825 2.33259L19.9612 9.54562L19.1799 10.4574C18.8408 10.8531 18.8721 11.4454 19.2505 11.8034L22.3374 14.7226L17.4164 20.6315C17.2718 20.8052 17.1902 21.0311 17.1902 21.257V45.6394C17.1902 48.0441 19.1456 50 21.5489 50H34.0935C36.4971 50 38.4522 48.0441 38.4522 45.6394V45.5077C38.4522 44.9684 38.015 44.5307 37.4756 44.5307C36.9362 44.5307 36.499 44.9684 36.499 45.5077V45.6394C36.499 46.9663 35.4199 48.046 34.0935 48.046H21.5489C20.2225 48.046 19.1437 46.9663 19.1437 45.6394V22.2341H36.499V36.7208C36.499 37.26 36.9362 37.6978 37.4756 37.6978C38.015 37.6978 38.4522 37.26 38.4522 36.7208V21.257C38.4522 21.0437 38.3793 20.8292 38.2488 20.6602L34.3613 15.6202H38.353L44.0945 23.7228C44.7033 24.5815 45.6951 25.0945 46.7476 25.0945C48.5413 25.0945 50 23.6351 50 21.841V19.0138C50 14.012 45.9328 9.94291 40.9332 9.94291ZM22.9305 9.08269L25.372 11.0584L23.5874 13.2159L21.2681 11.0226L22.9305 9.08269ZM35.4885 20.28H20.2519L24.1322 15.6202H31.8939L35.4885 20.28ZM48.0469 21.8406C48.0469 22.5573 47.464 23.1405 46.7476 23.1405C46.3272 23.1405 45.9312 22.9355 45.6879 22.5924L39.6542 14.078C39.4711 13.8192 39.1743 13.6658 38.8577 13.6658H25.7504L27.2133 11.8969H40.9332C44.8555 11.8969 48.0469 15.0893 48.0469 19.0138V21.8406Z" fill="#E51313"/>
<path d="M38.3774 40.7032C38.2229 40.3262 37.8338 40.08 37.4268 40.1017C37.0308 40.1227 36.6791 40.3868 36.5509 40.7628C36.4193 41.1497 36.5498 41.5875 36.8691 41.8417C37.188 42.0958 37.645 42.1218 37.9914 41.9065C38.3915 41.6577 38.5586 41.1383 38.3774 40.7032Z" fill="#E51313"/>
<path d="M4.66314 8.96743C4.51169 8.60258 4.15578 8.36558 3.76134 8.36558C3.75753 8.36558 3.75371 8.36558 3.7499 8.36558C3.35088 8.37016 2.99497 8.61708 2.85078 8.98919L0.26098 15.6706C-0.199072 16.8575 -0.0445773 18.1929 0.674493 19.2431C1.39318 20.2934 2.58184 20.9204 3.85404 20.9204C5.14493 20.9204 6.34313 20.2793 7.05953 19.205C7.77593 18.1306 7.9083 16.7773 7.41277 15.5851L4.66314 8.96743ZM5.43485 18.12C5.07627 18.6577 4.49987 18.9661 3.85404 18.9661C3.21699 18.9661 2.64555 18.6646 2.28582 18.139C1.92609 17.6135 1.85171 16.9712 2.08211 16.3774L3.79301 11.9637L5.6088 16.335C5.85714 16.9319 5.79343 17.5826 5.43485 18.12Z" fill="#E51313"/>
</svg>
