<svg id="Layer_1" data-name="Layer 1" xmlns="http://www.w3.org/2000/svg" viewBox="0 0 500 500"><defs><style>.cls-1,.cls-2,.cls-3{fill:#fff;}.cls-2{font-size:10px;letter-spacing:0.2em;}.cls-2,.cls-3{font-family:SegoeUIHistoric, Segoe UI Historic;}.cls-3{font-size:40px;}</style></defs><title>fojeh copy</title><rect width="500" height="500"/><polygon class="cls-1" points="171.87 225.09 171.87 259.77 176.05 259.82 176.05 244.96 187.35 244.96 187.34 241.2 176.05 241.2 176.05 228.87 200.75 228.87 200.75 225.09 171.87 225.09"/><path class="cls-1" d="M196.58,234H184.12v3.78h12.46v19.15c0,6.38-2.07,8.41-5.65,9.57-7.18,2.35-20.41-5.16-21.3-5.8v3.56c.89.4,9,7.64,21.25,6,3-.4,5.4-1.17,7.19-3.52s2.68-5.63,2.68-9.86V234Z"/><text class="cls-2" transform="translate(221.42 270.34) scale(1.2 1)">EVENT CENTER</text><path class="cls-1" d="M251.22,225.09a11.81,11.81,0,0,0-9.2,3.72q-3.37,3.72-3.38,10a13.47,13.47,0,0,0,3.32,9.45,11.37,11.37,0,0,0,8.82,3.63,11.58,11.58,0,0,0,9-3.69c2.24-2.45,3.36-5.8,3.36-10a13.51,13.51,0,0,0-3.28-9.45A11.09,11.09,0,0,0,251.22,225.09Zm6.29,21.26a8.53,8.53,0,0,1-6.73,2.78,8.07,8.07,0,0,1-6.47-2.92,13.07,13.07,0,0,1,.06-15.43,8.34,8.34,0,0,1,6.63-2.95,8.2,8.2,0,0,1,6.58,2.8q2.39,2.81,2.38,7.93C260,241.9,259.14,244.49,257.51,246.35Z"/><polygon class="cls-1" points="289.14 239.61 298.5 239.61 298.5 236.88 289.14 236.88 289.14 228.26 299.26 228.26 299.26 225.52 286.11 225.52 286.11 251.43 299.84 251.43 299.84 248.68 289.14 248.68 289.14 239.61"/><polygon class="cls-1" points="322.65 225.52 322.65 236.88 309.24 236.88 309.24 225.52 306.2 225.52 306.2 251.43 309.24 251.43 309.24 239.61 322.65 239.61 322.65 251.43 325.68 251.43 325.68 225.52 322.65 225.52"/><polygon class="cls-1" points="222.28 251.43 225.31 251.43 225.31 239.95 234.67 239.95 234.67 237.23 225.31 237.23 225.31 228.27 235.43 228.27 235.43 225.52 222.28 225.52 222.28 251.43"/><text class="cls-3" transform="translate(266.02 253.2)">J</text></svg>