<svg width="50" height="50" viewBox="0 0 50 50" fill="none" xmlns="http://www.w3.org/2000/svg">
<path d="M34.7935 18.1478H35.5545C35.9592 18.1478 36.2869 17.8062 36.2869 17.3843C36.2869 16.9628 35.9592 16.6208 35.5545 16.6208H35.1711V15.2501C35.1711 14.8281 34.8434 14.4865 34.4387 14.4865C34.0343 14.4865 33.7063 14.8281 33.7063 15.2501V17.0324C33.7063 17.6476 34.1942 18.1478 34.7935 18.1478Z" fill="#E51313"/>
<path d="M31.6025 16.4737C32.0068 16.4737 32.3349 16.1321 32.3349 15.7102V15.0353C32.3349 14.6138 32.0068 14.2718 31.6025 14.2718C31.1977 14.2718 30.8701 14.6138 30.8701 15.0353V15.7102C30.8701 16.1321 31.1977 16.4737 31.6025 16.4737Z" fill="#E51313"/>
<path d="M38.3495 16.4737C38.7539 16.4737 39.082 16.1321 39.082 15.7102V15.0353C39.082 14.6138 38.7539 14.2718 38.3495 14.2718C37.9448 14.2718 37.6171 14.6138 37.6171 15.0353V15.7102C37.6171 16.1321 37.9448 16.4737 38.3495 16.4737Z" fill="#E51313"/>
<path d="M32.1216 20.0165C32.9143 20.8082 33.9554 21.2043 34.9968 21.2043C36.0378 21.2043 37.0792 20.8082 37.8715 20.0165C38.1637 19.7246 38.1737 19.2414 37.8937 18.9368C37.6137 18.6326 37.1502 18.6223 36.8583 18.9142C35.8318 19.9393 34.1617 19.9393 33.1348 18.9142C32.843 18.6223 32.3791 18.6326 32.0995 18.9372C31.8195 19.2414 31.8294 19.725 32.1216 20.0165Z" fill="#E51313"/>
<path d="M33.7959 30.6651C33.6594 30.5228 33.4705 30.4412 33.2771 30.4412C33.0849 30.4412 32.8964 30.5228 32.7599 30.6651C32.6229 30.8075 32.5447 31.0043 32.5447 31.2048C32.5447 31.4064 32.6229 31.6028 32.7599 31.7444C32.8964 31.8868 33.0849 31.9683 33.2771 31.9683C33.4705 31.9683 33.659 31.8868 33.7959 31.7444C33.9317 31.6028 34.0107 31.4064 34.0107 31.2048C34.0107 31.0043 33.9317 30.8067 33.7959 30.6651Z" fill="#E51313"/>
<path d="M37.5557 30.6651C37.4191 30.5228 37.2303 30.4412 37.038 30.4412C36.8446 30.4412 36.6562 30.5228 36.5196 30.6651C36.3834 30.8067 36.3056 31.0043 36.3056 31.2048C36.3056 31.4052 36.3838 31.6028 36.5196 31.7444C36.6562 31.8868 36.8446 31.9683 37.038 31.9683C37.2303 31.9683 37.4188 31.8868 37.5557 31.7444C37.6923 31.6028 37.7705 31.4052 37.7705 31.2048C37.7705 31.0043 37.6923 30.8075 37.5557 30.6651Z" fill="#E51313"/>
<path d="M33.7959 35.0132C33.6594 34.8716 33.4705 34.7901 33.2771 34.7901C33.0849 34.7901 32.8964 34.8716 32.7599 35.0132C32.6229 35.1556 32.5447 35.3532 32.5447 35.5536C32.5447 35.7545 32.6229 35.9509 32.7599 36.0933C32.8964 36.2356 33.0849 36.3171 33.2771 36.3171C33.4705 36.3171 33.659 36.2356 33.7959 36.0933C33.9317 35.9517 34.0107 35.7545 34.0107 35.5536C34.0107 35.352 33.9317 35.1556 33.7959 35.0132Z" fill="#E51313"/>
<path d="M37.038 34.7901C36.8446 34.7901 36.6562 34.8716 36.5196 35.0132C36.3838 35.1556 36.3056 35.352 36.3056 35.5536C36.3056 35.7545 36.3838 35.9509 36.5196 36.0933C36.6562 36.2356 36.8446 36.3171 37.038 36.3171C37.2307 36.3171 37.4191 36.2356 37.5557 36.0933C37.6923 35.9509 37.7705 35.7545 37.7705 35.5536C37.7705 35.3532 37.6923 35.1556 37.5557 35.0132C37.4191 34.8716 37.2303 34.7901 37.038 34.7901Z" fill="#E51313"/>
<path d="M33.7959 39.3621C33.6594 39.2205 33.4705 39.1394 33.2771 39.1394C33.0849 39.1394 32.8964 39.2205 32.7599 39.3621C32.6229 39.5048 32.5447 39.7013 32.5447 39.9029C32.5447 40.1033 32.6229 40.2998 32.7599 40.4421C32.8964 40.5849 33.0849 40.6664 33.2771 40.6664C33.4705 40.6664 33.659 40.5849 33.7959 40.4421C33.9317 40.2998 34.0107 40.1033 34.0107 39.9029C34.0107 39.7013 33.9317 39.5048 33.7959 39.3621Z" fill="#E51313"/>
<path d="M33.2775 43.487C33.0849 43.487 32.8964 43.5686 32.7599 43.7109C32.6229 43.8537 32.5451 44.0501 32.5451 44.2506C32.5451 44.4522 32.6229 44.6486 32.7599 44.7914C32.8964 44.9326 33.0849 45.0141 33.2775 45.0141C33.4705 45.0141 33.6594 44.9326 33.7959 44.7914C33.9317 44.6486 34.0107 44.4522 34.0107 44.2506C34.0107 44.0501 33.9317 43.8525 33.7959 43.7109C33.6594 43.5686 33.4705 43.487 33.2775 43.487Z" fill="#E51313"/>
<path d="M49.6178 45.6408C49.7978 45.3227 49.926 44.9664 49.9863 44.5818C50.0355 44.2677 49.9504 43.9491 49.7536 43.7077C49.7067 43.6501 49.6544 43.5988 49.5983 43.5535C49.7887 43.227 49.9237 42.8591 49.9863 42.4603C50.0355 42.1465 49.9504 41.8276 49.7536 41.5866C49.7067 41.5289 49.6544 41.4776 49.5983 41.4319C49.7887 41.1054 49.9237 40.7376 49.9863 40.3387C50.0355 40.025 49.9504 39.706 49.7536 39.4651C49.7067 39.4074 49.6544 39.3561 49.5983 39.3108C49.7887 38.9843 49.9237 38.616 49.9863 38.2176C50.0355 37.9038 49.9504 37.5849 49.7536 37.3435C49.5564 37.1009 49.268 36.9618 48.9628 36.9618H47.0722V34.8748C47.0722 34.4529 46.7442 34.1113 46.3398 34.1113C45.9351 34.1113 45.6074 34.4529 45.6074 34.8748V36.9618H37.5294C37.2242 36.9618 36.9358 37.1009 36.739 37.3427C36.5414 37.5849 36.4563 37.9034 36.5055 38.218C36.5681 38.6164 36.7031 38.9843 36.8935 39.3108C36.8374 39.3561 36.7855 39.407 36.739 39.4643C36.5414 39.706 36.4563 40.025 36.5055 40.3395C36.5681 40.738 36.7031 41.1058 36.8935 41.4319C36.8374 41.4772 36.7855 41.5281 36.739 41.5854C36.5414 41.8276 36.4563 42.1465 36.5055 42.4607C36.5681 42.8591 36.7031 43.227 36.8935 43.5535C36.8374 43.5988 36.7855 43.6497 36.739 43.707C36.5414 43.9491 36.4563 44.2677 36.5055 44.5822C36.5448 44.8312 36.6131 45.0678 36.7043 45.2909H31.8638V29.8129C31.8638 29.4288 32.1083 28.8076 32.3669 28.5344L36.8809 23.768C37.3402 23.6909 37.7838 23.5652 38.2072 23.3962V23.6034C38.2072 24.495 38.7993 25.4323 39.5844 25.7842L45.1164 28.2636C45.3594 28.3726 45.607 28.7651 45.607 29.0415V31.3117C45.607 31.7333 45.9351 32.0753 46.3394 32.0753C46.7442 32.0753 47.0718 31.7333 47.0718 31.3117V29.0415C47.0718 28.1503 46.4798 27.2126 45.6951 26.8611L40.163 24.3816C39.92 24.2727 39.6721 23.8802 39.6721 23.6038V22.5822C40.9634 21.6342 41.9201 20.2252 42.318 18.5865H42.7643C43.8629 18.5865 44.7563 17.6567 44.7563 16.5134V14.9279C44.7563 13.7847 43.8629 12.8549 42.7643 12.8549H42.5221V9.71615C43.512 8.90054 44.0918 7.6642 44.0918 6.33202C44.0918 3.9516 42.236 2.01537 39.9551 2.01537C39.4955 2.01537 39.0411 2.0953 38.6101 2.24999C37.8979 0.876454 36.5223 0 34.9758 0C33.429 0 32.0534 0.876454 31.3416 2.24999C30.9109 2.0953 30.4562 2.01537 29.9965 2.01537C27.7157 2.01537 25.8598 3.9516 25.8598 6.33202C25.8598 7.69482 26.4885 8.98365 27.5253 9.7929V12.8545H27.187C26.0887 12.8545 25.1949 13.7847 25.1949 14.9279V16.5134C25.1949 17.6567 26.0887 18.5865 27.187 18.5865H27.7294C28.1174 20.1843 29.0367 21.5642 30.2792 22.5114V23.6034C30.2792 23.8798 30.0316 24.2723 29.7886 24.3812L24.2565 26.8611C23.4715 27.2126 22.8794 28.1503 22.8794 29.0415V31.2835C21.4935 30.0416 19.7765 29.2988 17.9626 29.1496V28.0226C17.9626 27.1339 17.2695 26.4105 16.4173 26.4105H12.3528C11.5006 26.4105 10.8074 27.1339 10.8074 28.0226V29.1496C8.90503 29.3059 7.10793 30.114 5.68886 31.4672C4.52423 32.5771 3.68767 33.9832 3.24593 35.5326H0.732422C0.327683 35.5326 0 35.8745 0 36.2961C0 36.718 0.327683 37.0596 0.732422 37.0596H0.979996V38.2263C0.979996 38.9282 1.52779 39.4989 2.2007 39.4989H2.32925V41.8542C2.32925 42.8365 3.09601 43.6358 4.03824 43.6358V45.2909H1.2207C0.547409 45.2909 0 45.8615 0 46.5634V48.7275C0 49.429 0.547409 50 1.2207 50H41.6992C42.104 50 42.4316 49.658 42.4316 49.2365C42.4316 48.8146 42.104 48.473 41.6992 48.473H1.46484V46.8179H48.5352V48.473H45.2148C44.8101 48.473 44.4824 48.8146 44.4824 49.2365C44.4824 49.658 44.8101 50 45.2148 50H48.7793C49.4526 50 50 49.429 50 48.7275V46.5634C50 46.2003 49.8524 45.873 49.6178 45.6408ZM42.7643 14.3816C43.0553 14.3816 43.2915 14.6265 43.2915 14.9279V16.5134C43.2915 16.8145 43.055 17.0594 42.7643 17.0594H42.5179C42.5194 16.999 42.5224 16.9389 42.5224 16.8781V14.3816H42.7643ZM27.1873 17.0594C26.8967 17.0594 26.6602 16.8145 26.6602 16.5134V14.9279C26.6602 14.6269 26.8967 14.3816 27.1873 14.3816H27.5253V16.8781C27.5253 16.9389 27.5284 16.999 27.5299 17.0594H27.1873ZM28.6327 8.73073C27.8259 8.22928 27.3247 7.31027 27.3247 6.33202C27.3247 4.79385 28.5233 3.5424 29.9965 3.5424C30.4729 3.5424 30.941 3.67522 31.3499 3.92694C31.5434 4.04584 31.778 4.06573 31.987 3.98142C32.196 3.89672 32.3563 3.71737 32.4223 3.49388C32.7694 2.31759 33.7955 1.52703 34.9758 1.52703C36.1561 1.52703 37.1822 2.31759 37.5294 3.49388C37.5954 3.71737 37.7556 3.89672 37.965 3.98142C38.1741 4.06573 38.4087 4.04584 38.6017 3.92694C39.011 3.67522 39.4787 3.5424 39.9551 3.5424C41.4284 3.5424 42.6266 4.79385 42.6266 6.33202C42.6266 7.28681 42.1658 8.16525 41.394 8.68182C41.1842 8.8222 41.0572 9.06437 41.0572 9.32445V11.891H28.9902V9.38648C28.9902 9.11766 28.8548 8.86872 28.6327 8.73073ZM28.9902 16.8781V13.418H41.0572V16.8781C41.0572 19.8844 38.7043 22.3309 35.812 22.3309H34.2358C31.3435 22.3305 28.9902 19.8844 28.9902 16.8781ZM12.2723 28.0226C12.2723 27.9757 12.3085 27.9379 12.3528 27.9379H16.4173C16.4619 27.9379 16.4978 27.9761 16.4978 28.0226V29.1198H12.2723V28.0226ZM6.67725 32.5938C7.99446 31.3384 9.70306 30.6468 11.4883 30.6468H17.2821C19.067 30.6468 20.7756 31.3384 22.0928 32.5938C22.9492 33.4102 23.5931 34.4191 23.9838 35.5326H4.78668C5.17731 34.4191 5.82123 33.4102 6.67725 32.5938ZM2.44484 37.9718V37.0596H26.3252V37.9718H2.44484ZM6.06804 45.2909H5.50308V43.6358H6.06804V45.2909ZM23.2674 45.2909H22.7024V43.6358H23.2674V45.2909ZM12.5977 42.1087C12.1929 42.1087 11.8652 42.4507 11.8652 42.8723C11.8652 43.2938 12.1929 43.6358 12.5977 43.6358H21.2376V45.2909H7.53288V43.6358H9.17969C9.58443 43.6358 9.91211 43.2938 9.91211 42.8723C9.91211 42.4507 9.58443 42.1087 9.17969 42.1087H4.03862C3.90625 42.1087 3.79448 41.9922 3.79448 41.8542V39.4989H24.976V41.8542C24.976 41.9922 24.8642 42.1087 24.7318 42.1087H12.5977ZM30.3989 29.8129V45.2909H24.7322V43.6358C25.6744 43.6358 26.4408 42.8365 26.4408 41.8542V39.4989H26.5694C27.2427 39.4989 27.7901 38.9282 27.7901 38.2263V37.0596H28.0376C28.4424 37.0596 28.7701 36.718 28.7701 36.2961C28.7701 35.8745 28.4424 35.5326 28.0376 35.5326H25.5241C25.264 34.6195 24.8661 33.7566 24.3446 32.9744V29.0415C24.3446 28.7651 24.5922 28.3726 24.8352 28.2636L30.3673 25.7842C31.152 25.4323 31.744 24.495 31.744 23.6034V23.3584C32.1533 23.5294 32.5829 23.6587 33.0273 23.7434L33.9291 24.7113L31.3244 27.4615C30.7968 28.0187 30.3989 29.0295 30.3989 29.8129ZM47.9969 45.2909H38.4949C38.3472 45.172 38.2225 45.0236 38.1279 44.8526H48.3639C48.2697 45.0236 48.1445 45.172 47.9969 45.2909ZM47.7585 43.3256H38.7337C38.4811 43.1944 38.2702 42.988 38.1279 42.7315H48.3643C48.222 42.988 48.011 43.1944 47.7585 43.3256ZM47.7585 41.2044H38.7337C38.4811 41.0728 38.2702 40.8668 38.1279 40.6099H48.3643C48.222 40.8668 48.011 41.0728 47.7585 41.2044ZM47.7585 39.0829H38.7337C38.4811 38.9517 38.2702 38.7453 38.1279 38.4888H48.3643C48.222 38.7453 48.011 38.9517 47.7585 39.0829Z" fill="#E51313"/>
<path d="M12.8059 19.3122H14.558C15.4518 19.3122 16.1793 20.0717 16.1793 21.0055C16.1793 21.9388 15.4518 22.6983 14.558 22.6983H12.8502C12.4455 22.6983 12.1178 23.0403 12.1178 23.4618C12.1178 23.8837 12.4455 24.2253 12.8502 24.2253H14.558C16.2594 24.2253 17.6441 22.781 17.6441 21.0055C17.6441 19.2299 16.2594 17.7852 14.558 17.7852H12.8059C12.4012 17.7852 12.0735 18.1272 12.0735 18.5487C12.0735 18.9706 12.4012 19.3122 12.8059 19.3122Z" fill="#E51313"/>
<path d="M8.01811 19.3122H10.0739C10.4782 19.3122 10.8063 18.9706 10.8063 18.5487C10.8063 18.1272 10.4782 17.7852 10.0739 17.7852H8.01811C6.97174 17.7852 6.1203 16.8964 6.1203 15.8032C6.1203 14.7104 6.97174 13.8212 8.01811 13.8212H10.339C10.7437 13.8212 11.0714 13.4792 11.0714 13.0577C11.0714 12.6358 10.7437 12.2942 10.339 12.2942H8.01811C6.16379 12.2942 4.65546 13.8682 4.65546 15.8032C4.65546 17.7382 6.16379 19.3122 8.01811 19.3122Z" fill="#E51313"/>
<path d="M13.0894 15.1566C13.4941 15.1566 13.8218 14.8146 13.8218 14.3931V13.9501C13.8218 13.3428 14.2948 12.8489 14.8762 12.8489H19.1078C20.6875 12.8489 21.9727 11.508 21.9727 9.8597C21.9727 8.21138 20.6875 6.87045 19.1078 6.87045H17.6365C17.2318 6.87045 16.9041 7.21205 16.9041 7.63397C16.9041 8.05549 17.2318 8.39749 17.6365 8.39749H19.1078C19.8795 8.39749 20.5078 9.05324 20.5078 9.8597C20.5078 10.6658 19.8795 11.3219 19.1078 11.3219H14.8762C13.4872 11.3219 12.3569 12.501 12.3569 13.9501V14.3931C12.3569 14.8146 12.685 15.1566 13.0894 15.1566Z" fill="#E51313"/>
</svg>
