<svg width="18" height="26" viewBox="0 0 18 26" fill="none" xmlns="http://www.w3.org/2000/svg">
<g clip-path="url(#clip0)">
<path d="M8.07506 25.4754C1.26422 14.7789 0 13.6811 0 9.75C0 4.36521 4.02942 0 9 0C13.9706 0 18 4.36521 18 9.75C18 13.6811 16.7358 14.7789 9.92494 25.4754C9.47798 26.1749 8.52197 26.1748 8.07506 25.4754ZM9 13.8125C11.0711 13.8125 12.75 11.9937 12.75 9.75C12.75 7.50633 11.0711 5.6875 9 5.6875C6.92892 5.6875 5.25 7.50633 5.25 9.75C5.25 11.9937 6.92892 13.8125 9 13.8125Z" fill="black"/>
</g>
<defs>
<clipPath id="clip0">
<rect width="18" height="26" fill="white"/>
</clipPath>
</defs>
</svg>
