<svg width="50" height="50" viewBox="0 0 50 50" fill="none" xmlns="http://www.w3.org/2000/svg">
<path d="M42.4337 14.1328H27.3614C26.9136 14.1328 26.5508 14.4844 26.5508 14.918C26.5508 15.3516 26.9136 15.7031 27.3614 15.7031H42.4336C42.8813 15.7031 43.2442 15.3516 43.2442 14.918C43.2442 14.4844 42.8814 14.1328 42.4337 14.1328Z" fill="#E51313"/>
<path d="M49.1763 20.7447H47.2425V12.766H47.5171C47.9721 12.766 48.3409 12.4088 48.3409 11.9682C48.3409 11.5275 47.9721 11.1703 47.5171 11.1703H46.1126C45.7114 6.08574 41.5083 2.01484 36.2585 1.62627V0.797852C36.2585 0.357227 35.8898 0 35.4347 0C34.9797 0 34.611 0.357227 34.611 0.797852V1.62617C29.3612 2.01475 25.158 6.08564 24.7568 11.1702H23.3525C22.8975 11.1702 22.5287 11.5274 22.5287 11.9681C22.5287 12.4087 22.8975 12.7659 23.3525 12.7659H23.6271V20.7446H17.8583C18.2188 20.2805 18.4775 19.7382 18.6015 19.1489H18.959C19.414 19.1489 19.7828 18.7917 19.7828 18.3511C19.7828 17.9104 19.414 17.5532 18.959 17.5532H17.8583C18.2188 17.0891 18.4775 16.5468 18.6015 15.9575H18.959C19.414 15.9575 19.7828 15.6003 19.7828 15.1597C19.7828 14.719 19.414 14.3618 18.959 14.3618H17.8583C18.2188 13.8977 18.4775 13.3554 18.6015 12.7661H18.959C19.414 12.7661 19.7828 12.4089 19.7828 11.9683C19.7828 11.5276 19.414 11.1704 18.959 11.1704H17.8583C18.2188 10.7063 18.4775 10.164 18.6015 9.57471H18.959C19.414 9.57471 19.7828 9.21748 19.7828 8.77686C19.7828 8.33623 19.414 7.979 18.959 7.979H2.48302C2.02797 7.979 1.65924 8.33623 1.65924 8.77686C1.65924 9.21748 2.02797 9.57471 2.48302 9.57471H2.84056C2.96457 10.164 3.2231 10.7063 3.58377 11.1704H2.48302C2.02797 11.1704 1.65924 11.5276 1.65924 11.9683C1.65924 12.4089 2.02797 12.7661 2.48302 12.7661H2.84056C2.96457 13.3554 3.2231 13.8978 3.58377 14.3618H2.48302C2.02797 14.3618 1.65924 14.719 1.65924 15.1597C1.65924 15.6003 2.02797 15.9575 2.48302 15.9575H2.84056C2.96457 16.5468 3.2231 17.0892 3.58377 17.5532H2.48302C2.02797 17.5532 1.65924 17.9104 1.65924 18.3511C1.65924 18.7917 2.02797 19.1489 2.48302 19.1489H2.84056C2.96457 19.7382 3.2231 20.2806 3.58377 20.7446H0.823773C0.368732 20.7446 0 21.1019 0 21.5425V27.9255C0 28.3661 0.368732 28.7233 0.823773 28.7233H41.485C41.94 28.7233 42.3088 28.3661 42.3088 27.9255C42.3088 27.4849 41.94 27.1276 41.485 27.1276H1.64755V22.3404H48.3527V27.1276H44.7802C44.3251 27.1276 43.9564 27.4849 43.9564 27.9255C43.9564 28.3661 44.3251 28.7233 44.7802 28.7233H48.0662V45.1765C46.8258 45.0601 46.1117 44.6785 45.3064 44.2481C44.2861 43.703 43.1298 43.0851 40.9269 43.0851C38.724 43.0851 37.5676 43.703 36.5474 44.2481C35.5788 44.7657 34.7422 45.2127 32.9636 45.2127C31.185 45.2127 30.3483 44.7657 29.3798 44.2481C28.3595 43.703 27.2032 43.0851 25.0001 43.0851C22.7969 43.0851 21.6406 43.703 20.6203 44.2481C19.6518 44.7657 18.8151 45.2127 17.0365 45.2127C15.2579 45.2127 14.4213 44.7657 13.4528 44.2481C12.4326 43.703 11.2763 43.0851 9.0734 43.0851C6.87049 43.0851 5.71408 43.703 4.69389 44.2481C4.46441 44.3707 4.24228 44.489 4.0133 44.5986C3.43807 44.8741 2.82059 45.0932 1.9339 45.1764V31.117C1.9339 30.6764 1.56517 30.3191 1.11013 30.3191C0.655086 30.3191 0.286354 30.6764 0.286354 31.117V46.0106C0.286354 46.4513 0.655086 46.8085 1.11013 46.8085C2.128 46.8085 2.92071 46.6758 3.58155 46.4801V49.2021C3.58155 49.6427 3.95028 49.9999 4.40532 49.9999C4.86036 49.9999 5.22909 49.6427 5.22909 49.2021V45.7837C5.31712 45.7373 5.40413 45.6911 5.48974 45.6454C6.4583 45.1278 7.29488 44.6809 9.0734 44.6809C10.8519 44.6809 11.6885 45.1279 12.6569 45.6453C13.6771 46.1905 14.8334 46.8085 17.0364 46.8085C19.2395 46.8085 20.3958 46.1905 21.4161 45.6454C22.3846 45.1278 23.2213 44.6809 24.9999 44.6809C26.7786 44.6809 27.6153 45.1279 28.5838 45.6454C29.6041 46.1906 30.7604 46.8085 32.9635 46.8085C35.1665 46.8085 36.3229 46.1905 37.3431 45.6454C38.3117 45.1278 39.1483 44.6809 40.9268 44.6809C42.7053 44.6809 43.5419 45.1279 44.5103 45.6453C44.5959 45.691 44.6828 45.7372 44.7708 45.7836V49.2021C44.7708 49.6428 45.1395 50 45.5946 50C46.0496 50 46.4184 49.6428 46.4184 49.2021V46.48C47.0792 46.6757 47.8718 46.8085 48.8898 46.8085C49.3448 46.8085 49.7135 46.4513 49.7135 46.0106V28.5296C49.8887 28.3833 50 28.1673 50 27.9256V21.5426C50.0001 21.102 49.6314 20.7447 49.1763 20.7447ZM14.5654 20.7447H6.87654C5.80261 20.7447 4.88688 20.0776 4.54688 19.149H16.895C16.5549 20.0775 15.6392 20.7447 14.5654 20.7447ZM14.5654 17.5532H6.87654C5.80261 17.5532 4.88688 16.8861 4.54688 15.9575H16.895C16.5549 16.886 15.6392 17.5532 14.5654 17.5532ZM14.5654 14.3617H6.87654C5.80261 14.3617 4.88688 13.6946 4.54688 12.766H16.895C16.5549 13.6945 15.6392 14.3617 14.5654 14.3617ZM14.5654 11.1702H6.87654C5.80261 11.1702 4.88688 10.5031 4.54688 9.57451H16.895C16.5549 10.5031 15.6392 11.1702 14.5654 11.1702ZM35.4347 3.1915C40.1535 3.1915 44.0396 6.70352 44.4573 11.1702H26.4122C26.83 6.70352 30.7159 3.1915 35.4347 3.1915ZM45.5949 20.7447H25.2746V12.766H45.5949V20.7447Z" fill="#E51313"/>
<path d="M43.5137 36.6384C43.9614 36.6384 44.3243 36.2869 44.3243 35.8534C44.3243 35.4198 43.9614 35.0684 43.5137 35.0684C43.066 35.0684 42.7031 35.4198 42.7031 35.8534C42.7031 36.2869 43.066 36.6384 43.5137 36.6384Z" fill="#E51313"/>
<path d="M40.2715 39.7792C40.7192 39.7792 41.0822 39.4277 41.0822 38.9941C41.0822 38.5605 40.7192 38.209 40.2715 38.209C39.8239 38.209 39.4609 38.5605 39.4609 38.9941C39.4609 39.4277 39.8239 39.7792 40.2715 39.7792Z" fill="#E51313"/>
</svg>
