<svg width="50" height="50" viewBox="0 0 50 50" fill="none" xmlns="http://www.w3.org/2000/svg">
<mask id="path-1-inside-1" fill="white">
<path d="M36.4354 8.48417L28.3706 2.89917V0H26.6857V2.5H23.3159V0H21.631V2.89917L13.5662 8.4825C13.1843 8.74531 13.0899 9.26458 13.3555 9.6424C13.5133 9.86688 13.7724 10.0005 14.0489 10H35.9526C36.4179 9.99969 36.7948 9.62625 36.7945 9.16604C36.7942 8.89448 36.6602 8.64 36.4354 8.48417ZM16.7212 8.33333L22.7388 4.16667H27.2628L33.2804 8.33333H16.7212Z"/>
<path d="M10.6791 32.5H8.99422C7.59839 32.5 6.46687 33.6193 6.46687 35V35.8333C6.46687 37.2141 7.59839 38.3333 8.99422 38.3333H10.6791C12.075 38.3333 13.2065 37.2141 13.2065 35.8333V35C13.2065 33.6193 12.075 32.5 10.6791 32.5ZM11.5216 35.8333C11.5216 36.2935 11.1444 36.6667 10.6791 36.6667H8.99422C8.52898 36.6667 8.15177 36.2935 8.15177 35.8333V35C8.15177 34.5398 8.52898 34.1667 8.99422 34.1667H10.6791C11.1444 34.1667 11.5216 34.5398 11.5216 35V35.8333Z"/>
<path d="M41.0073 32.5H39.3224C37.9266 32.5 36.7951 33.6193 36.7951 35V35.8333C36.7951 37.2141 37.9266 38.3333 39.3224 38.3333H41.0073C42.4032 38.3333 43.5347 37.2141 43.5347 35.8333V35C43.5347 33.6193 42.4032 32.5 41.0073 32.5ZM41.8498 35.8333C41.8498 36.2935 41.4726 36.6667 41.0073 36.6667H39.3224C38.8572 36.6667 38.48 36.2935 38.48 35.8333V35C38.48 34.5398 38.8572 34.1667 39.3224 34.1667H41.0073C41.4726 34.1667 41.8498 34.5398 41.8498 35V35.8333Z"/>
<path d="M32.5828 32.5H17.4187C16.0229 32.5 14.8914 33.6193 14.8914 35V35.8333C14.8914 37.2141 16.0229 38.3333 17.4187 38.3333H32.5828C33.9787 38.3333 35.1102 37.2141 35.1102 35.8333V35C35.1102 33.6193 33.9787 32.5 32.5828 32.5ZM33.4253 35.8333C33.4253 36.2935 33.0481 36.6667 32.5828 36.6667H17.4187C16.9535 36.6667 16.5763 36.2935 16.5763 35.8333V35C16.5763 34.5398 16.9535 34.1667 17.4187 34.1667H32.5828C33.0481 34.1667 33.4253 34.5398 33.4253 35V35.8333Z"/>
<path d="M44.2558 30.0542L42.3881 29.315L36.801 21.7158C36.0068 20.6394 34.7413 20.0021 33.3941 20H16.6074C15.2603 20.0021 13.9948 20.6394 13.2006 21.7158L7.61345 29.315L5.74574 30.0542C4.14245 30.6824 3.09159 32.2175 3.09707 33.9233V48.3333C3.09707 49.2539 3.85138 50 4.78197 50H9.83667C10.7673 50 11.5216 49.2539 11.5216 48.3333V45H38.48V48.3333C38.48 49.2539 39.2343 50 40.1649 50H45.2196C46.1502 50 46.9045 49.2539 46.9045 48.3333V33.9233C46.91 32.2175 45.8591 30.6824 44.2558 30.0542ZM14.5628 22.6967C15.0393 22.0505 15.7989 21.6679 16.6074 21.6667H33.3941C34.2027 21.6679 34.9622 22.0505 35.4387 22.6967L40.1952 29.1667H9.80635L14.5628 22.6967ZM9.83667 48.3333H4.78197V44.8575C4.85274 44.8825 4.9294 44.8958 5.00354 44.9142C5.0524 44.9267 5.09958 44.9433 5.15012 44.9525C5.30629 44.9831 5.4652 44.9991 5.62442 45H9.83667V48.3333ZM45.2196 48.3333H40.1649V45H44.3771C44.5364 44.9991 44.6953 44.9831 44.8514 44.9525C44.902 44.9433 44.9492 44.9267 44.9989 44.9142C45.0722 44.8958 45.1488 44.8825 45.2196 44.8575V48.3333ZM45.2196 42.5C45.2196 42.9602 44.8424 43.3333 44.3771 43.3333H5.62442C5.15918 43.3333 4.78197 42.9602 4.78197 42.5V41.6667H45.2196V42.5ZM45.2196 40H4.78197V33.9233C4.77839 32.9 5.40886 31.9791 6.37083 31.6025L8.31352 30.8333H41.688L43.6307 31.6025C44.5927 31.9791 45.2232 32.9 45.2196 33.9233V40Z"/>
<path d="M25.8432 11.6667H24.1583V14.1667H25.8432V11.6667Z"/>
<path d="M25.8432 15.8333H24.1583V18.3333H25.8432V15.8333Z"/>
<path d="M15.9254 11.1381L14.3238 13.0721L15.6272 14.1283L17.2288 12.1943L15.9254 11.1381Z"/>
<path d="M13.2571 14.3625L11.6552 16.2962L12.9585 17.3525L14.5603 15.4188L13.2571 14.3625Z"/>
<path d="M10.5875 17.5853L8.98571 19.519L10.289 20.5753L11.8908 18.6416L10.5875 17.5853Z"/>
<path d="M7.91682 20.8118L6.31499 22.7456L7.61826 23.8019L9.22009 21.8681L7.91682 20.8118Z"/>
<path d="M19.9802 11.4367L19.2718 13.8365L20.8891 14.3036L21.5976 11.9039L19.9802 11.4367Z"/>
<path d="M18.7993 15.4302L18.0899 17.8297L19.707 18.2976L20.4165 15.8981L18.7993 15.4302Z"/>
<path d="M11.1449 10.8828L9.287 12.5778L10.4288 13.8023L12.2866 12.1074L11.1449 10.8828Z"/>
<path d="M8.04764 13.7104L6.18979 15.4054L7.33158 16.63L9.18944 14.935L8.04764 13.7104Z"/>
<path d="M4.95326 16.5336L3.09541 18.2286L4.2372 19.4531L6.09505 17.7581L4.95326 16.5336Z"/>
<path d="M1.85786 19.3586L0 21.0536L1.14179 22.2782L2.99965 20.5832L1.85786 19.3586Z"/>
<path d="M34.0781 11.3129L32.775 12.3682L34.3761 14.3027L35.6792 13.2474L34.0781 11.3129Z"/>
<path d="M36.7428 14.531L35.4394 15.5872L37.041 17.5212L38.3444 16.465L36.7428 14.531Z"/>
<path d="M39.4141 17.7567L38.1109 18.8129L39.7125 20.7467L41.0157 19.6905L39.4141 17.7567Z"/>
<path d="M42.0774 20.9838L40.7741 22.0399L42.3757 23.9737L43.679 22.9175L42.0774 20.9838Z"/>
<path d="M30.0212 11.6178L28.4036 12.0844L29.1113 14.4844L30.7288 14.0178L30.0212 11.6178Z"/>
<path d="M31.2008 15.6049L29.5836 16.0726L30.2928 18.4721L31.9099 18.0044L31.2008 15.6049Z"/>
<path d="M38.8549 11.0545L37.7131 12.2789L39.5707 13.9739L40.7125 12.7495L38.8549 11.0545Z"/>
<path d="M41.9526 13.882L40.8107 15.1062L42.668 16.8015L43.81 15.5772L41.9526 13.882Z"/>
<path d="M45.0453 16.7085L43.9033 17.9327L45.7607 19.6279L46.9027 18.4037L45.0453 16.7085Z"/>
<path d="M48.1424 19.5306L47.0006 20.755L48.8582 22.45L50 21.2256L48.1424 19.5306Z"/>
</mask>
<path d="M36.4354 8.48417L28.3706 2.89917V0H26.6857V2.5H23.3159V0H21.631V2.89917L13.5662 8.4825C13.1843 8.74531 13.0899 9.26458 13.3555 9.6424C13.5133 9.86688 13.7724 10.0005 14.0489 10H35.9526C36.4179 9.99969 36.7948 9.62625 36.7945 9.16604C36.7942 8.89448 36.6602 8.64 36.4354 8.48417ZM16.7212 8.33333L22.7388 4.16667H27.2628L33.2804 8.33333H16.7212Z" fill="black"/>
<path d="M10.6791 32.5H8.99422C7.59839 32.5 6.46687 33.6193 6.46687 35V35.8333C6.46687 37.2141 7.59839 38.3333 8.99422 38.3333H10.6791C12.075 38.3333 13.2065 37.2141 13.2065 35.8333V35C13.2065 33.6193 12.075 32.5 10.6791 32.5ZM11.5216 35.8333C11.5216 36.2935 11.1444 36.6667 10.6791 36.6667H8.99422C8.52898 36.6667 8.15177 36.2935 8.15177 35.8333V35C8.15177 34.5398 8.52898 34.1667 8.99422 34.1667H10.6791C11.1444 34.1667 11.5216 34.5398 11.5216 35V35.8333Z" fill="black"/>
<path d="M41.0073 32.5H39.3224C37.9266 32.5 36.7951 33.6193 36.7951 35V35.8333C36.7951 37.2141 37.9266 38.3333 39.3224 38.3333H41.0073C42.4032 38.3333 43.5347 37.2141 43.5347 35.8333V35C43.5347 33.6193 42.4032 32.5 41.0073 32.5ZM41.8498 35.8333C41.8498 36.2935 41.4726 36.6667 41.0073 36.6667H39.3224C38.8572 36.6667 38.48 36.2935 38.48 35.8333V35C38.48 34.5398 38.8572 34.1667 39.3224 34.1667H41.0073C41.4726 34.1667 41.8498 34.5398 41.8498 35V35.8333Z" fill="black"/>
<path d="M32.5828 32.5H17.4187C16.0229 32.5 14.8914 33.6193 14.8914 35V35.8333C14.8914 37.2141 16.0229 38.3333 17.4187 38.3333H32.5828C33.9787 38.3333 35.1102 37.2141 35.1102 35.8333V35C35.1102 33.6193 33.9787 32.5 32.5828 32.5ZM33.4253 35.8333C33.4253 36.2935 33.0481 36.6667 32.5828 36.6667H17.4187C16.9535 36.6667 16.5763 36.2935 16.5763 35.8333V35C16.5763 34.5398 16.9535 34.1667 17.4187 34.1667H32.5828C33.0481 34.1667 33.4253 34.5398 33.4253 35V35.8333Z" fill="black"/>
<path d="M44.2558 30.0542L42.3881 29.315L36.801 21.7158C36.0068 20.6394 34.7413 20.0021 33.3941 20H16.6074C15.2603 20.0021 13.9948 20.6394 13.2006 21.7158L7.61345 29.315L5.74574 30.0542C4.14245 30.6824 3.09159 32.2175 3.09707 33.9233V48.3333C3.09707 49.2539 3.85138 50 4.78197 50H9.83667C10.7673 50 11.5216 49.2539 11.5216 48.3333V45H38.48V48.3333C38.48 49.2539 39.2343 50 40.1649 50H45.2196C46.1502 50 46.9045 49.2539 46.9045 48.3333V33.9233C46.91 32.2175 45.8591 30.6824 44.2558 30.0542ZM14.5628 22.6967C15.0393 22.0505 15.7989 21.6679 16.6074 21.6667H33.3941C34.2027 21.6679 34.9622 22.0505 35.4387 22.6967L40.1952 29.1667H9.80635L14.5628 22.6967ZM9.83667 48.3333H4.78197V44.8575C4.85274 44.8825 4.9294 44.8958 5.00354 44.9142C5.0524 44.9267 5.09958 44.9433 5.15012 44.9525C5.30629 44.9831 5.4652 44.9991 5.62442 45H9.83667V48.3333ZM45.2196 48.3333H40.1649V45H44.3771C44.5364 44.9991 44.6953 44.9831 44.8514 44.9525C44.902 44.9433 44.9492 44.9267 44.9989 44.9142C45.0722 44.8958 45.1488 44.8825 45.2196 44.8575V48.3333ZM45.2196 42.5C45.2196 42.9602 44.8424 43.3333 44.3771 43.3333H5.62442C5.15918 43.3333 4.78197 42.9602 4.78197 42.5V41.6667H45.2196V42.5ZM45.2196 40H4.78197V33.9233C4.77839 32.9 5.40886 31.9791 6.37083 31.6025L8.31352 30.8333H41.688L43.6307 31.6025C44.5927 31.9791 45.2232 32.9 45.2196 33.9233V40Z" fill="black"/>
<path d="M25.8432 11.6667H24.1583V14.1667H25.8432V11.6667Z" fill="black"/>
<path d="M25.8432 15.8333H24.1583V18.3333H25.8432V15.8333Z" fill="black"/>
<path d="M15.9254 11.1381L14.3238 13.0721L15.6272 14.1283L17.2288 12.1943L15.9254 11.1381Z" fill="black"/>
<path d="M13.2571 14.3625L11.6552 16.2962L12.9585 17.3525L14.5603 15.4188L13.2571 14.3625Z" fill="black"/>
<path d="M10.5875 17.5853L8.98571 19.519L10.289 20.5753L11.8908 18.6416L10.5875 17.5853Z" fill="black"/>
<path d="M7.91682 20.8118L6.31499 22.7456L7.61826 23.8019L9.22009 21.8681L7.91682 20.8118Z" fill="black"/>
<path d="M19.9802 11.4367L19.2718 13.8365L20.8891 14.3036L21.5976 11.9039L19.9802 11.4367Z" fill="black"/>
<path d="M18.7993 15.4302L18.0899 17.8297L19.707 18.2976L20.4165 15.8981L18.7993 15.4302Z" fill="black"/>
<path d="M11.1449 10.8828L9.287 12.5778L10.4288 13.8023L12.2866 12.1074L11.1449 10.8828Z" fill="black"/>
<path d="M8.04764 13.7104L6.18979 15.4054L7.33158 16.63L9.18944 14.935L8.04764 13.7104Z" fill="black"/>
<path d="M4.95326 16.5336L3.09541 18.2286L4.2372 19.4531L6.09505 17.7581L4.95326 16.5336Z" fill="black"/>
<path d="M1.85786 19.3586L0 21.0536L1.14179 22.2782L2.99965 20.5832L1.85786 19.3586Z" fill="black"/>
<path d="M34.0781 11.3129L32.775 12.3682L34.3761 14.3027L35.6792 13.2474L34.0781 11.3129Z" fill="black"/>
<path d="M36.7428 14.531L35.4394 15.5872L37.041 17.5212L38.3444 16.465L36.7428 14.531Z" fill="black"/>
<path d="M39.4141 17.7567L38.1109 18.8129L39.7125 20.7467L41.0157 19.6905L39.4141 17.7567Z" fill="black"/>
<path d="M42.0774 20.9838L40.7741 22.0399L42.3757 23.9737L43.679 22.9175L42.0774 20.9838Z" fill="black"/>
<path d="M30.0212 11.6178L28.4036 12.0844L29.1113 14.4844L30.7288 14.0178L30.0212 11.6178Z" fill="black"/>
<path d="M31.2008 15.6049L29.5836 16.0726L30.2928 18.4721L31.9099 18.0044L31.2008 15.6049Z" fill="black"/>
<path d="M38.8549 11.0545L37.7131 12.2789L39.5707 13.9739L40.7125 12.7495L38.8549 11.0545Z" fill="black"/>
<path d="M41.9526 13.882L40.8107 15.1062L42.668 16.8015L43.81 15.5772L41.9526 13.882Z" fill="black"/>
<path d="M45.0453 16.7085L43.9033 17.9327L45.7607 19.6279L46.9027 18.4037L45.0453 16.7085Z" fill="black"/>
<path d="M48.1424 19.5306L47.0006 20.755L48.8582 22.45L50 21.2256L48.1424 19.5306Z" fill="black"/>
<path d="M36.4354 8.48417L28.3706 2.89917V0H26.6857V2.5H23.3159V0H21.631V2.89917L13.5662 8.4825C13.1843 8.74531 13.0899 9.26458 13.3555 9.6424C13.5133 9.86688 13.7724 10.0005 14.0489 10H35.9526C36.4179 9.99969 36.7948 9.62625 36.7945 9.16604C36.7942 8.89448 36.6602 8.64 36.4354 8.48417ZM16.7212 8.33333L22.7388 4.16667H27.2628L33.2804 8.33333H16.7212Z" stroke="#E51313" stroke-width="2" mask="url(#path-1-inside-1)"/>
<path d="M10.6791 32.5H8.99422C7.59839 32.5 6.46687 33.6193 6.46687 35V35.8333C6.46687 37.2141 7.59839 38.3333 8.99422 38.3333H10.6791C12.075 38.3333 13.2065 37.2141 13.2065 35.8333V35C13.2065 33.6193 12.075 32.5 10.6791 32.5ZM11.5216 35.8333C11.5216 36.2935 11.1444 36.6667 10.6791 36.6667H8.99422C8.52898 36.6667 8.15177 36.2935 8.15177 35.8333V35C8.15177 34.5398 8.52898 34.1667 8.99422 34.1667H10.6791C11.1444 34.1667 11.5216 34.5398 11.5216 35V35.8333Z" stroke="#E51313" stroke-width="2" mask="url(#path-1-inside-1)"/>
<path d="M41.0073 32.5H39.3224C37.9266 32.5 36.7951 33.6193 36.7951 35V35.8333C36.7951 37.2141 37.9266 38.3333 39.3224 38.3333H41.0073C42.4032 38.3333 43.5347 37.2141 43.5347 35.8333V35C43.5347 33.6193 42.4032 32.5 41.0073 32.5ZM41.8498 35.8333C41.8498 36.2935 41.4726 36.6667 41.0073 36.6667H39.3224C38.8572 36.6667 38.48 36.2935 38.48 35.8333V35C38.48 34.5398 38.8572 34.1667 39.3224 34.1667H41.0073C41.4726 34.1667 41.8498 34.5398 41.8498 35V35.8333Z" stroke="#E51313" stroke-width="2" mask="url(#path-1-inside-1)"/>
<path d="M32.5828 32.5H17.4187C16.0229 32.5 14.8914 33.6193 14.8914 35V35.8333C14.8914 37.2141 16.0229 38.3333 17.4187 38.3333H32.5828C33.9787 38.3333 35.1102 37.2141 35.1102 35.8333V35C35.1102 33.6193 33.9787 32.5 32.5828 32.5ZM33.4253 35.8333C33.4253 36.2935 33.0481 36.6667 32.5828 36.6667H17.4187C16.9535 36.6667 16.5763 36.2935 16.5763 35.8333V35C16.5763 34.5398 16.9535 34.1667 17.4187 34.1667H32.5828C33.0481 34.1667 33.4253 34.5398 33.4253 35V35.8333Z" stroke="#E51313" stroke-width="2" mask="url(#path-1-inside-1)"/>
<path d="M44.2558 30.0542L42.3881 29.315L36.801 21.7158C36.0068 20.6394 34.7413 20.0021 33.3941 20H16.6074C15.2603 20.0021 13.9948 20.6394 13.2006 21.7158L7.61345 29.315L5.74574 30.0542C4.14245 30.6824 3.09159 32.2175 3.09707 33.9233V48.3333C3.09707 49.2539 3.85138 50 4.78197 50H9.83667C10.7673 50 11.5216 49.2539 11.5216 48.3333V45H38.48V48.3333C38.48 49.2539 39.2343 50 40.1649 50H45.2196C46.1502 50 46.9045 49.2539 46.9045 48.3333V33.9233C46.91 32.2175 45.8591 30.6824 44.2558 30.0542ZM14.5628 22.6967C15.0393 22.0505 15.7989 21.6679 16.6074 21.6667H33.3941C34.2027 21.6679 34.9622 22.0505 35.4387 22.6967L40.1952 29.1667H9.80635L14.5628 22.6967ZM9.83667 48.3333H4.78197V44.8575C4.85274 44.8825 4.9294 44.8958 5.00354 44.9142C5.0524 44.9267 5.09958 44.9433 5.15012 44.9525C5.30629 44.9831 5.4652 44.9991 5.62442 45H9.83667V48.3333ZM45.2196 48.3333H40.1649V45H44.3771C44.5364 44.9991 44.6953 44.9831 44.8514 44.9525C44.902 44.9433 44.9492 44.9267 44.9989 44.9142C45.0722 44.8958 45.1488 44.8825 45.2196 44.8575V48.3333ZM45.2196 42.5C45.2196 42.9602 44.8424 43.3333 44.3771 43.3333H5.62442C5.15918 43.3333 4.78197 42.9602 4.78197 42.5V41.6667H45.2196V42.5ZM45.2196 40H4.78197V33.9233C4.77839 32.9 5.40886 31.9791 6.37083 31.6025L8.31352 30.8333H41.688L43.6307 31.6025C44.5927 31.9791 45.2232 32.9 45.2196 33.9233V40Z" stroke="#E51313" stroke-width="2" mask="url(#path-1-inside-1)"/>
<path d="M25.8432 11.6667H24.1583V14.1667H25.8432V11.6667Z" stroke="#E51313" stroke-width="2" mask="url(#path-1-inside-1)"/>
<path d="M25.8432 15.8333H24.1583V18.3333H25.8432V15.8333Z" stroke="#E51313" stroke-width="2" mask="url(#path-1-inside-1)"/>
<path d="M15.9254 11.1381L14.3238 13.0721L15.6272 14.1283L17.2288 12.1943L15.9254 11.1381Z" stroke="#E51313" stroke-width="2" mask="url(#path-1-inside-1)"/>
<path d="M13.2571 14.3625L11.6552 16.2962L12.9585 17.3525L14.5603 15.4188L13.2571 14.3625Z" stroke="#E51313" stroke-width="2" mask="url(#path-1-inside-1)"/>
<path d="M10.5875 17.5853L8.98571 19.519L10.289 20.5753L11.8908 18.6416L10.5875 17.5853Z" stroke="#E51313" stroke-width="2" mask="url(#path-1-inside-1)"/>
<path d="M7.91682 20.8118L6.31499 22.7456L7.61826 23.8019L9.22009 21.8681L7.91682 20.8118Z" stroke="#E51313" stroke-width="2" mask="url(#path-1-inside-1)"/>
<path d="M19.9802 11.4367L19.2718 13.8365L20.8891 14.3036L21.5976 11.9039L19.9802 11.4367Z" stroke="#E51313" stroke-width="2" mask="url(#path-1-inside-1)"/>
<path d="M18.7993 15.4302L18.0899 17.8297L19.707 18.2976L20.4165 15.8981L18.7993 15.4302Z" stroke="#E51313" stroke-width="2" mask="url(#path-1-inside-1)"/>
<path d="M11.1449 10.8828L9.287 12.5778L10.4288 13.8023L12.2866 12.1074L11.1449 10.8828Z" stroke="#E51313" stroke-width="2" mask="url(#path-1-inside-1)"/>
<path d="M8.04764 13.7104L6.18979 15.4054L7.33158 16.63L9.18944 14.935L8.04764 13.7104Z" stroke="#E51313" stroke-width="2" mask="url(#path-1-inside-1)"/>
<path d="M4.95326 16.5336L3.09541 18.2286L4.2372 19.4531L6.09505 17.7581L4.95326 16.5336Z" stroke="#E51313" stroke-width="2" mask="url(#path-1-inside-1)"/>
<path d="M1.85786 19.3586L0 21.0536L1.14179 22.2782L2.99965 20.5832L1.85786 19.3586Z" stroke="#E51313" stroke-width="2" mask="url(#path-1-inside-1)"/>
<path d="M34.0781 11.3129L32.775 12.3682L34.3761 14.3027L35.6792 13.2474L34.0781 11.3129Z" stroke="#E51313" stroke-width="2" mask="url(#path-1-inside-1)"/>
<path d="M36.7428 14.531L35.4394 15.5872L37.041 17.5212L38.3444 16.465L36.7428 14.531Z" stroke="#E51313" stroke-width="2" mask="url(#path-1-inside-1)"/>
<path d="M39.4141 17.7567L38.1109 18.8129L39.7125 20.7467L41.0157 19.6905L39.4141 17.7567Z" stroke="#E51313" stroke-width="2" mask="url(#path-1-inside-1)"/>
<path d="M42.0774 20.9838L40.7741 22.0399L42.3757 23.9737L43.679 22.9175L42.0774 20.9838Z" stroke="#E51313" stroke-width="2" mask="url(#path-1-inside-1)"/>
<path d="M30.0212 11.6178L28.4036 12.0844L29.1113 14.4844L30.7288 14.0178L30.0212 11.6178Z" stroke="#E51313" stroke-width="2" mask="url(#path-1-inside-1)"/>
<path d="M31.2008 15.6049L29.5836 16.0726L30.2928 18.4721L31.9099 18.0044L31.2008 15.6049Z" stroke="#E51313" stroke-width="2" mask="url(#path-1-inside-1)"/>
<path d="M38.8549 11.0545L37.7131 12.2789L39.5707 13.9739L40.7125 12.7495L38.8549 11.0545Z" stroke="#E51313" stroke-width="2" mask="url(#path-1-inside-1)"/>
<path d="M41.9526 13.882L40.8107 15.1062L42.668 16.8015L43.81 15.5772L41.9526 13.882Z" stroke="#E51313" stroke-width="2" mask="url(#path-1-inside-1)"/>
<path d="M45.0453 16.7085L43.9033 17.9327L45.7607 19.6279L46.9027 18.4037L45.0453 16.7085Z" stroke="#E51313" stroke-width="2" mask="url(#path-1-inside-1)"/>
<path d="M48.1424 19.5306L47.0006 20.755L48.8582 22.45L50 21.2256L48.1424 19.5306Z" stroke="#E51313" stroke-width="2" mask="url(#path-1-inside-1)"/>
</svg>
