<svg width="50" height="50" viewBox="0 0 50 50" fill="none" xmlns="http://www.w3.org/2000/svg">
<path d="M24.0063 1.67497L24.0077 1.68227L24.0092 1.68955L24.01 1.693C24.0613 1.93818 24.5401 4.22374 25.0069 6.86366C25.4818 9.55005 25.9231 12.4912 25.9231 14.0626C25.9231 18.6366 22.9667 21.9519 18.3575 23.3187L17.5908 23.546L17.644 24.344L19.1943 47.5921C19.1943 47.5926 19.1943 47.5931 19.1944 47.5936C19.2287 48.1584 18.6068 49 17.3077 49H9.61539C8.32284 49 7.69445 48.1636 7.72872 47.5933C7.72876 47.5927 7.72879 47.5922 7.72883 47.5916L9.27903 24.344L9.33228 23.5455L8.56491 23.3185C3.94606 21.9522 1 18.6284 1 14.0626C1 12.4863 1.44131 9.54504 1.91621 6.86008C2.38055 4.23473 2.85689 1.96138 2.91232 1.69687L2.91385 1.68955L2.91537 1.68227L2.91679 1.67497C2.9279 1.61772 2.995 1.45053 3.37518 1.27346C3.74418 1.1016 4.26876 0.996035 4.83352 1.00011C5.3994 1.0042 5.9123 1.11762 6.26491 1.29534C6.56455 1.44637 6.66149 1.59147 6.69231 1.69096V15.381V15.6045L6.78749 15.8068C6.94651 16.1447 7.2242 16.3107 7.36376 16.3813C7.52544 16.4632 7.69111 16.5109 7.82571 16.541C8.09936 16.602 8.40379 16.6241 8.67733 16.6226C8.9505 16.6212 9.25191 16.5958 9.51946 16.5331C9.64979 16.5025 9.81601 16.4532 9.97771 16.3672C10.1091 16.2973 10.4223 16.107 10.5604 15.7081L10.604 15.582L10.6131 15.4489C10.6888 14.337 10.8912 11.4375 11.0909 8.57496C11.3114 5.41654 11.5287 2.30318 11.5692 1.68594C11.6021 1.5937 11.7056 1.44459 12.0229 1.29207C12.3849 1.11807 12.9004 1.00991 13.46 1.00991C14.0198 1.00991 14.534 1.11811 14.8939 1.29158C15.2149 1.44632 15.3134 1.59655 15.343 1.68628L15.3497 1.77748C15.3566 1.87314 15.3661 2.00661 15.378 2.1734C15.4016 2.50686 15.4342 2.97188 15.4733 3.53056C15.5514 4.64784 15.655 6.13871 15.7632 7.69869C15.9796 10.8188 16.2139 14.2143 16.298 15.4489L16.307 15.582L16.3507 15.7081C16.4895 16.109 16.8053 16.2991 16.9358 16.3682C17.0976 16.4538 17.264 16.5029 17.3945 16.5334C17.6624 16.5958 17.9645 16.6212 18.2383 16.6226C18.5121 16.6241 18.8173 16.6021 19.0911 16.5408C19.2254 16.5108 19.3926 16.4625 19.5557 16.3788C19.6955 16.307 19.982 16.1338 20.136 15.7794L20.2188 15.5888V15.381V1.69202C20.2493 1.59548 20.3458 1.45121 20.6466 1.30016C21.0012 1.12215 21.5165 1.00837 22.0844 1.00377C22.6513 0.999173 23.1777 1.10417 23.5478 1.27567C23.9294 1.45245 23.9955 1.61922 24.0063 1.67497ZM40.31 29.4841L40.3711 28.8712L39.8512 28.5408C35.2974 25.6471 33.0089 22.4989 32.167 19.482C31.3249 16.4642 31.8881 13.4274 33.329 10.6737C34.7738 7.91229 37.0827 5.47797 39.6322 3.73632C42.1947 1.98582 44.9025 1.00014 47.1154 1.00014C48.3628 1.00014 49 1.78876 49 2.34388V47.6563C49 48.2188 48.3657 49 47.1154 49H40.3846C39.055 49 38.4473 48.1267 38.5065 47.5659L38.5071 47.5602L40.31 29.4841Z" fill="white" stroke="#E51313" stroke-width="2"/>
</svg>
