<svg width="58" height="58" viewBox="0 0 58 58" fill="none" xmlns="http://www.w3.org/2000/svg">
<g filter="url(#filter0_d)">
<path d="M7.77604 6.25V5.25H6.77604H5.38889C5.32206 5.25 5.2374 5.22184 5.15409 5.12812C5.06912 5.03253 5 4.87973 5 4.6875V1.5625C5 1.37027 5.06912 1.21747 5.15409 1.12188C5.2374 1.02816 5.32206 1 5.38889 1H52.6111C52.6779 1 52.7626 1.02816 52.8459 1.12188C52.9309 1.21748 53 1.37027 53 1.5625V4.6875C53 4.87973 52.9309 5.03253 52.8459 5.12812C52.7626 5.22184 52.6779 5.25 52.6111 5.25H51.2222H50.2222V6.25V43.75V44.75H51.2222H52.6111C52.6779 44.75 52.7626 44.7782 52.8459 44.8719C52.9309 44.9675 53 45.1203 53 45.3125V48.4375C53 48.6297 52.9309 48.7825 52.8459 48.8781C52.7626 48.9718 52.6779 49 52.6111 49H32.7778V42.1875C32.7778 40.8898 31.8125 39.625 30.3889 39.625H27.6111C26.1875 39.625 25.2222 40.8898 25.2222 42.1875V49H5.38889C5.32206 49 5.2374 48.9718 5.15409 48.8781C5.06912 48.7825 5 48.6297 5 48.4375V45.3125C5 45.1203 5.06912 44.9675 5.15409 44.8719C5.2374 44.7782 5.32206 44.75 5.38889 44.75H6.77604H7.77604V43.75V6.25ZM19.6667 37.5V38.5H20.6667H37.3333H38.3333V37.5C38.3333 31.884 34.2622 27.125 29 27.125C23.7378 27.125 19.6667 31.884 19.6667 37.5ZM27.3333 8.375C26.6864 8.375 26.1565 8.72498 25.822 9.10126C25.4804 9.48557 25.2222 10.0266 25.2222 10.625V14.375C25.2222 14.9734 25.4804 15.5144 25.822 15.8987C26.1565 16.275 26.6864 16.625 27.3333 16.625H30.6667C31.3136 16.625 31.8435 16.275 32.178 15.8987C32.5196 15.5144 32.7778 14.9734 32.7778 14.375V10.625C32.7778 10.0266 32.5196 9.48557 32.178 9.10126C31.8435 8.72498 31.3136 8.375 30.6667 8.375H27.3333ZM27.3333 17.75C26.6864 17.75 26.1565 18.1 25.822 18.4763C25.4804 18.8606 25.2222 19.4016 25.2222 20V23.75C25.2222 24.3484 25.4804 24.8894 25.822 25.2737C26.1565 25.65 26.6864 26 27.3333 26H30.6667C31.3136 26 31.8435 25.65 32.178 25.2737C32.5196 24.8894 32.7778 24.3484 32.7778 23.75V20C32.7778 19.4016 32.5196 18.8606 32.178 18.4763C31.8435 18.1 31.3136 17.75 30.6667 17.75H27.3333ZM16.2222 8.375C15.5753 8.375 15.0454 8.72498 14.7109 9.10126C14.3693 9.48557 14.1111 10.0266 14.1111 10.625V14.375C14.1111 14.9734 14.3693 15.5144 14.7109 15.8987C15.0454 16.275 15.5753 16.625 16.2222 16.625H19.5556C20.2025 16.625 20.7324 16.275 21.0669 15.8987C21.4085 15.5144 21.6667 14.9734 21.6667 14.375V10.625C21.6667 10.0266 21.4085 9.48557 21.0669 9.10126C20.7324 8.72498 20.2025 8.375 19.5556 8.375H16.2222ZM16.2222 26H19.5556C20.2025 26 20.7324 25.65 21.0669 25.2737C21.4085 24.8894 21.6667 24.3484 21.6667 23.75V20C21.6667 19.4016 21.4085 18.8606 21.0669 18.4763C20.7324 18.1 20.2025 17.75 19.5556 17.75H16.2222C15.5753 17.75 15.0454 18.1 14.7109 18.4763C14.3693 18.8606 14.1111 19.4016 14.1111 20V23.75C14.1111 24.3484 14.3693 24.8894 14.7109 25.2737C15.0454 25.65 15.5753 26 16.2222 26ZM41.7778 26C42.4247 26 42.9546 25.65 43.2891 25.2737C43.6307 24.8894 43.8889 24.3484 43.8889 23.75V20C43.8889 19.4016 43.6307 18.8606 43.2891 18.4763C42.9546 18.1 42.4247 17.75 41.7778 17.75H38.4444C37.7975 17.75 37.2676 18.1 36.9331 18.4763C36.5915 18.8606 36.3333 19.4016 36.3333 20V23.75C36.3333 24.3484 36.5915 24.8894 36.9331 25.2737C37.2676 25.65 37.7975 26 38.4444 26H41.7778ZM41.7778 16.625C42.4247 16.625 42.9546 16.275 43.2891 15.8987C43.6307 15.5144 43.8889 14.9734 43.8889 14.375V10.625C43.8889 10.0266 43.6307 9.48557 43.2891 9.10126C42.9546 8.72498 42.4247 8.375 41.7778 8.375H38.4444C37.7975 8.375 37.2676 8.72498 36.9331 9.10126C36.5915 9.48557 36.3333 10.0266 36.3333 10.625V14.375C36.3333 14.9734 36.5915 15.5144 36.9331 15.8987C37.2676 16.275 37.7975 16.625 38.4444 16.625H41.7778Z" fill="white" stroke="#E51313" stroke-width="2"/>
</g>
<defs>
<filter id="filter0_d" x="0" y="0" width="58" height="58" filterUnits="userSpaceOnUse" color-interpolation-filters="sRGB">
<feFlood flood-opacity="0" result="BackgroundImageFix"/>
<feColorMatrix in="SourceAlpha" type="matrix" values="0 0 0 0 0 0 0 0 0 0 0 0 0 0 0 0 0 0 127 0"/>
<feOffset dy="4"/>
<feGaussianBlur stdDeviation="2"/>
<feColorMatrix type="matrix" values="0 0 0 0 0 0 0 0 0 0 0 0 0 0 0 0 0 0 0.25 0"/>
<feBlend mode="normal" in2="BackgroundImageFix" result="effect1_dropShadow"/>
<feBlend mode="normal" in="SourceGraphic" in2="effect1_dropShadow" result="shape"/>
</filter>
</defs>
</svg>
